<?xml version="1.0" standalone="no"?><!DOCTYPE svg PUBLIC "-//W3C//DTD SVG 1.1//EN" "http://www.w3.org/Graphics/SVG/1.1/DTD/svg11.dtd"><svg t="1694517076638" class="icon" viewBox="0 0 1024 1024" version="1.1" xmlns="http://www.w3.org/2000/svg" p-id="6108" xmlns:xlink="http://www.w3.org/1999/xlink" width="200" height="200"><path d="M327.347038 392.061359v160.85173l140.440922 80.346225 140.440922-80.346225v-160.874485l-140.440922-80.368978-140.440922 80.391733z m152.978665 288.322574v181.581101l158.576277 90.699533 158.48526-90.722287V680.406687l-158.48526-90.745041-158.576277 90.745041zM816.683077 285.115096l-159.145141 91.063605v182.263738l159.145141 91.063605 159.122386-91.040851v-182.263737l-159.122386-91.08636z" fill="#009688" p-id="6109"></path><path d="M227.454677 249.094685c-67.990518 64.645603-116.867235 117.185799-150.361895 179.191876-23.368896 43.324614-33.995259 84.715093-31.515015 122.988203 2.571261 40.13898 19.546136 77.251609 50.40127 110.336687 31.697052 33.94975 56.63601 55.976129 83.44084 73.724657a29.62639 29.62639 0 0 0 40.88988-8.10061 29.125791 29.125791 0 0 0-8.191629-40.662335c-22.367697-14.790441-43.916231-33.904241-71.972559-63.82644h124.922336V564.13107H105.877255c-8.259892-32.334179-1.592817-65.373748 21.298235-106.036082l142.807393 0.091018V399.615861H166.472553c25.257522-31.697052 58.661163-67.216864 101.780986-108.197762 124.398983-118.255261 185.995479-200.28532 193.868544-258.150075A29.307827 29.307827 0 0 0 436.796298 0.319474a29.489863 29.489863 0 0 0-33.19885 25.075485c-1.615571 11.946125-7.986838 27.168902-18.931764 45.281503l-55.202476 0.113772c-67.239618 0.159282-188.088896 0.45509-209.614675 0.295809-3.936533-8.714983-14.267087-34.518613-15.768885-45.668329A29.489863 29.489863 0 0 0 70.949061 0.296719a29.398845 29.398845 0 0 0-19.6144 11.377262 28.898246 28.898246 0 0 0-5.688631 21.571289c6.211985 45.895875 45.691084 105.899555 124.262456 188.81704 11.149717 11.71858 29.831181 12.287443 41.686288 1.274253 5.711386-5.27905 9.079055-12.651515 9.283846-20.456317a29.012018 29.012018 0 0 0-7.986838-21.002425 1054.763206 1054.763206 0 0 1-47.07911-52.744987h176.165525c-29.057527 34.996458-67.535427 75.29472-114.52352 119.961851zM341.022507 800.300274a29.717408 29.717408 0 0 0-41.686288-1.297007 29.012018 29.012018 0 0 0-9.283846 20.456317c-0.2503 7.782047 2.61677 15.359304 7.986838 21.002425a1067.551249 1067.551249 0 0 1 47.056355 52.744987H165.767163c29.057527-34.996458 67.512673-75.29472 114.500764-119.961851 37.863528-35.974902 61.437215-60.162962 84.123476-86.239646 5.119768-5.847913 7.668275-13.538942 7.053902-21.298234a29.080282 29.080282 0 0 0-10.171272-20.046736 29.740163 29.740163 0 0 0-41.59527 3.071861c-21.389253 24.620395-43.870722 47.670728-80.209697 82.189341-124.376228 118.255261-185.972725 200.28532-193.823036 258.150075a29.330581 29.330581 0 0 0 25.280276 32.971305c16.110203 2.138925 30.991662-9.10181 33.176096-25.09824 2.002398-14.744932 5.097013-24.574886 18.476674-45.144976h265.272241c11.01319 18.203619 17.407211 33.403641 19.000028 45.122221a29.489863 29.489863 0 0 0 33.130586 25.120995 29.353336 29.353336 0 0 0 19.6144-11.377262c4.710186-6.143721 6.758094-13.88026 5.688631-21.548534-6.189231-45.918629-45.691084-105.899555-124.262455-188.817041z" fill="#009688" p-id="6110"></path></svg>