<?xml version="1.0" standalone="no"?><!DOCTYPE svg PUBLIC "-//W3C//DTD SVG 1.1//EN" "http://www.w3.org/Graphics/SVG/1.1/DTD/svg11.dtd"><svg t="1694679634062" class="icon" viewBox="0 0 1024 1024" version="1.1" xmlns="http://www.w3.org/2000/svg" p-id="4127" xmlns:xlink="http://www.w3.org/1999/xlink" width="200" height="200"><path d="M631.466667 607.573333c1.706667-6.826667 1.706667-13.653333 1.706666-20.48V182.613333c0-52.906667-42.666667-97.28-97.28-97.28-52.906667 0-97.28 42.666667-97.28 97.28v404.48c0 6.826667 1.706667 13.653333 1.706667 20.48-56.32 32.426667-93.866667 92.16-93.866667 162.133334 0 104.106667 83.626667 187.733333 187.733334 187.733333s187.733333-83.626667 187.733333-187.733333c3.413333-69.973333-34.133333-129.706667-90.453333-162.133334z" fill="#EAFFFB" p-id="4128"></path><path d="M537.6 965.973333c-107.52 0-196.266667-88.746667-196.266667-196.266666 0-68.266667 35.84-131.413333 92.16-165.546667-1.706667-5.12-1.706667-11.946667-1.706666-17.066667V182.613333c0-58.026667 47.786667-105.813333 105.813333-105.813333s105.813333 47.786667 105.813333 105.813333v404.48c0 5.12 0 11.946667-1.706666 17.066667 58.026667 35.84 92.16 98.986667 92.16 165.546667 0 107.52-88.746667 196.266667-196.266667 196.266666z m0-872.106666c-47.786667 0-88.746667 39.253333-88.746667 88.746666v404.48c0 6.826667 0 13.653333 1.706667 18.773334l1.706667 6.826666-5.12 1.706667C392.533333 646.826667 358.4 706.56 358.4 769.706667c0 98.986667 80.213333 179.2 179.2 179.2S716.8 868.693333 716.8 769.706667c0-63.146667-34.133333-122.88-88.746667-155.306667l-5.12-3.413333 1.706667-6.826667c1.706667-6.826667 1.706667-13.653333 1.706667-18.773333V182.613333c-1.706667-49.493333-40.96-88.746667-88.746667-88.746666z" fill="#44B9A3" p-id="4129"></path><path d="M476.16 839.68c-32.426667-32.426667-46.08-63.146667-40.96-92.16 5.12-39.253333 42.666667-59.733333 44.373333-59.733333l8.533334 15.36s-30.72 17.066667-35.84 47.786666c-3.413333 23.893333 8.533333 49.493333 37.546666 76.8l-13.653333 11.946667zM515.413333 278.186667h-63.146666c-5.12 0-8.533333-3.413333-8.533334-8.533334s3.413333-8.533333 8.533334-8.533333h63.146666c5.12 0 8.533333 3.413333 8.533334 8.533333s-3.413333 8.533333-8.533334 8.533334zM535.893333 344.746667h-85.333333c-5.12 0-8.533333-3.413333-8.533333-8.533334s3.413333-8.533333 8.533333-8.533333h85.333333c5.12 0 8.533333 3.413333 8.533334 8.533333s-3.413333 8.533333-8.533334 8.533334z" fill="#44B9A3" p-id="4130"></path><path d="M484.693333 423.253333h-34.133333c-5.12 0-8.533333-3.413333-8.533333-8.533333s3.413333-8.533333 8.533333-8.533333h34.133333c5.12 0 8.533333 3.413333 8.533334 8.533333s-3.413333 8.533333-8.533334 8.533333z" fill="#44B9A3" p-id="4131"></path></svg>